<svg xmlns="http://www.w3.org/2000/svg" width="136" height="54" viewBox="0 0 136 54" class="editor-view__logo-preview" data-v-8d8ae3dd="" data-v-b0ffd048=""><svg id="mark" viewBox="0 0 144 144" width="54" height="54" x="0" y="0" data-v-8d8ae3dd="" style="fill: rgb(0, 0, 0);"><rect x="0" y="0" width="100%" height="100%" fill="none" data-v-8d8ae3dd=""></rect><g data-v-8d8ae3dd=""><g xmlns="http://www.w3.org/2000/svg"><line fill="none" stroke="#000000" stroke-width="8" stroke-linecap="round" stroke-miterlimit="10" x1="26.89" y1="37.505" x2="108.329" y2="16.034"></line><line fill="none" stroke="#000000" stroke-width="8" stroke-linecap="round" stroke-miterlimit="10" x1="108.329" y1="17.158" x2="126.376" y2="126.299"></line><line fill="none" stroke="#000000" stroke-width="8" stroke-linecap="round" stroke-miterlimit="10" x1="126.376" y1="127.391" x2="25.764" y2="105.985"></line><line fill="none" stroke="#000000" stroke-width="8" stroke-linecap="round" stroke-miterlimit="10" x1="24.311" y1="105.397" x2="27.217" y2="38.476"></line></g><g xmlns="http://www.w3.org/2000/svg"><g><rect x="110.198" y="109.037" stroke="#000000" stroke-width="2" stroke-linejoin="bevel" stroke-miterlimit="10" width="27.84" height="26.674"></rect><rect x="115.967" y="113.892" stroke="#000000" stroke-width="2" stroke-linejoin="bevel" stroke-miterlimit="10" width="17.306" height="16.052"></rect></g><g><rect x="94.409" y="3.821" stroke="#000000" stroke-width="2" stroke-linejoin="bevel" stroke-miterlimit="10" width="27.84" height="26.674"></rect><rect x="100.178" y="8.675" stroke="#000000" stroke-width="2" stroke-linejoin="bevel" stroke-miterlimit="10" width="17.306" height="16.052"></rect></g><g><rect x="13.297" y="92.061" stroke="#000000" stroke-width="2" stroke-linejoin="bevel" stroke-miterlimit="10" width="27.84" height="26.674"></rect><rect x="19.065" y="96.915" stroke="#000000" stroke-width="2" stroke-linejoin="bevel" stroke-miterlimit="10" width="17.306" height="16.052"></rect></g><g><rect x="12.97" y="25.139" stroke="#000000" stroke-width="2" stroke-linejoin="bevel" stroke-miterlimit="10" width="27.84" height="26.674"></rect><rect x="18.738" y="29.994" stroke="#000000" stroke-width="2" stroke-linejoin="bevel" stroke-miterlimit="10" width="17.306" height="16.052"></rect></g></g></g></svg><svg id="name" viewBox="0 0 66.7314453125 32.703125" width="66" height="32.3446650959273" x="70" y="10.827667452036351" data-v-8d8ae3dd="" style="fill: rgb(0, 0, 0);"><rect x="0" y="0" width="100%" height="100%" fill="none" data-v-8d8ae3dd=""></rect><g data-v-8d8ae3dd=""><path xmlns="http://www.w3.org/2000/svg" d="M12.71 32.70L0 32.70L0 0L11.46 0Q17.41 0 20.48 2.28Q23.56 4.56 23.56 8.96L23.56 8.96Q23.56 11.37 22.33 13.20Q21.09 15.03 18.89 15.88L18.89 15.88Q21.41 16.51 22.85 18.42Q24.30 20.33 24.30 23.09L24.30 23.09Q24.30 27.81 21.29 30.23Q18.28 32.66 12.71 32.70L12.71 32.70ZM12.92 18.46L6.74 18.46L6.74 27.29L12.51 27.29Q14.89 27.29 16.23 26.16Q17.56 25.02 17.56 23.02L17.56 23.02Q17.56 18.53 12.92 18.46L12.92 18.46ZM6.74 5.46L6.74 13.70L11.72 13.70Q16.82 13.61 16.82 9.64L16.82 9.64Q16.82 7.41 15.53 6.44Q14.24 5.46 11.46 5.46L11.46 5.46L6.74 5.46ZM36.52 0L36.52 32.70L29.78 32.70L29.78 0L36.52 0ZM66.73 0L66.73 5.46L56.71 5.46L56.71 32.70L49.98 32.70L49.98 5.46L40.09 5.46L40.09 0L66.73 0Z"></path></g></svg><!----></svg>